<?xml version="1.0" encoding="UTF-8" standalone="no"?>
<!-- Created with Inkscape (http://www.inkscape.org/) -->

<svg
   width="565.45398"
   height="129.77847"
   viewBox="0 0 149.60975 34.337219"
   version="1.1"
   id="svg7921"
   inkscape:version="1.2 (dc2aedaf03, 2022-05-15)"
   sodipodi:docname="PlayStation 3 Logo.svg"
   xmlns:inkscape="http://www.inkscape.org/namespaces/inkscape"
   xmlns:sodipodi="http://sodipodi.sourceforge.net/DTD/sodipodi-0.dtd"
   xmlns="http://www.w3.org/2000/svg"
   xmlns:svg="http://www.w3.org/2000/svg"
   xmlns:rdf="http://www.w3.org/1999/02/22-rdf-syntax-ns#"
   xmlns:cc="http://creativecommons.org/ns#"
   xmlns:dc="http://purl.org/dc/elements/1.1/">
  <defs
     id="defs7915">
    <clipPath
       clipPathUnits="userSpaceOnUse"
       id="clipPath923">
      <path
         d="M 0,1190.551 H 841.89 V 0 H 0 Z"
         id="path921"
         inkscape:connector-curvature="0" />
    </clipPath>
  </defs>
  <sodipodi:namedview
     id="base"
     pagecolor="#ffffff"
     bordercolor="#666666"
     borderopacity="1.0"
     inkscape:pageopacity="0.0"
     inkscape:pageshadow="2"
     inkscape:zoom="2.8284272"
     inkscape:cx="457.14452"
     inkscape:cy="72.831997"
     inkscape:document-units="mm"
     inkscape:current-layer="g8032"
     showgrid="false"
     units="px"
     inkscape:window-width="1920"
     inkscape:window-height="1017"
     inkscape:window-x="-8"
     inkscape:window-y="-8"
     inkscape:window-maximized="1"
     inkscape:pagecheckerboard="1"
     inkscape:showpageshadow="2"
     inkscape:deskcolor="#d1d1d1" />
  <metadata
     id="metadata7918">
    <rdf:RDF>
      <cc:Work
         rdf:about="">
        <dc:format>image/svg+xml</dc:format>
        <dc:type
           rdf:resource="http://purl.org/dc/dcmitype/StillImage" />
      </cc:Work>
    </rdf:RDF>
  </metadata>
  <g
     inkscape:label="Layer 1"
     inkscape:groupmode="layer"
     id="layer1"
     transform="translate(-0.04300189,-262.65013)">
    <g
       id="g8032"
       transform="translate(-0.1984375,-0.07783887)">
      <g
         id="g247">
        <g
           style="fill:#000000"
           transform="matrix(1.0584725,0,0,-1.0921161,16.369393,262.72797)"
           id="g885">
          <path
             inkscape:connector-curvature="0"
             id="path887"
             style="fill:#000000;fill-opacity:1;fill-rule:nonzero;stroke:none"
             d="m 0,0 v -29.334 l 6.639,-2.107 v 24.605 c 0,1.15 0.513,1.924 1.343,1.652 1.082,-0.298 1.295,-1.359 1.295,-2.511 v -9.826 c 4.139,-1.999 7.395,0.001 7.395,5.275 0,5.41 -1.906,7.81 -7.526,9.744 C 6.934,-1.76 2.824,-0.521 0,0" />
        </g>
        <g
           style="fill:#000000"
           transform="matrix(1.0584725,0,0,-1.0921161,24.727515,292.38362)"
           id="g889">
          <path
             inkscape:connector-curvature="0"
             id="path891"
             style="fill:#000000;fill-opacity:1;fill-rule:nonzero;stroke:none"
             d="m 0,0 10.678,3.807 c 1.211,0.431 1.396,1.047 0.414,1.369 C 10.107,5.496 8.326,5.404 7.117,4.971 L 0,2.463 V 6.451 L 0.41,6.59 c 0,0 2.057,0.728 4.945,1.049 2.891,0.314 6.432,-0.041 9.209,-1.098 3.133,-0.99 3.485,-2.447 2.69,-3.449 C 16.457,2.086 14.51,1.369 14.51,1.369 L 0,-3.842 Z" />
        </g>
        <g
           style="fill:#000000"
           transform="matrix(1.0584725,0,0,-1.0921161,3.4795262,291.94207)"
           id="g893">
          <path
             inkscape:connector-curvature="0"
             id="path895"
             style="fill:#000000;fill-opacity:1;fill-rule:nonzero;stroke:none"
             d="m 0,0 c -3.215,0.906 -3.75,2.787 -2.285,3.875 1.357,1.004 3.66,1.76 3.66,1.76 l 9.514,3.381 V 5.162 L 4.041,2.709 C 2.83,2.275 2.648,1.66 3.629,1.34 4.613,1.018 6.393,1.109 7.605,1.545 l 3.284,1.189 V -0.717 C 10.68,-0.752 10.449,-0.789 10.236,-0.824 6.949,-1.361 3.449,-1.137 0,0" />
        </g>
      </g>
      <g
         id="g255"
         transform="translate(-4.2333332,-1.5875)">
        <g
           style="fill:#000000"
           transform="matrix(1.0584725,0,0,-1.0921161,119.23344,270.85702)"
           id="g905">
          <path
             inkscape:connector-curvature="0"
             id="path907"
             style="fill:#000000;fill-opacity:1;fill-rule:nonzero;stroke:none"
             d="m 0,0 h -11.918 c -3.676,0 -5.477,-2.266 -5.477,-5.213 v -8.961 c 0,-1.824 -0.865,-3.137 -2.691,-3.137 h -10.418 c -0.076,0 -0.137,-0.062 -0.137,-0.136 v -1.801 c 0,-0.074 0.061,-0.137 0.139,-0.137 h 11.791 c 3.678,0 5.479,2.262 5.479,5.207 v 8.967 c 0,1.826 0.863,3.141 2.689,3.141 L 0,-2.07 c 0.074,0 0.135,0.062 0.135,0.136 v 1.797 C 0.135,-0.063 0.074,0 0,0" />
        </g>
        <g
           style="fill:#000000"
           transform="matrix(1.0584725,0,0,-1.0921161,82.102123,270.86128)"
           id="g909">
          <path
             inkscape:connector-curvature="0"
             id="path911"
             style="fill:#000000;fill-opacity:1;fill-rule:nonzero;stroke:none"
             d="m 0,0 -22.92,0.004 c -0.076,0 -0.137,-0.063 -0.137,-0.137 v -1.799 c 0,-0.074 0.061,-0.134 0.137,-0.134 h 21.543 c 1.826,0 2.693,-1.315 2.693,-3.143 0,-1.824 -0.863,-3.137 -2.693,-3.137 H -18.42 c -2.644,0 -4.637,-2.222 -4.637,-5.174 v -5.722 c 0,-0.076 0.063,-0.135 0.137,-0.135 h 3.887 c 0.074,0 0.137,0.059 0.137,0.135 v 5.722 c 0,1.829 1.05,3.102 2.562,3.102 H 0 c 3.676,0 5.475,2.258 5.475,5.207 C 5.475,-2.264 3.676,0 0,0" />
        </g>
        <g
           style="fill:#000000"
           transform="matrix(1.0584725,0,0,-1.0921161,152.01719,281.17872)"
           id="g913">
          <path
             inkscape:connector-curvature="0"
             id="path915"
             style="fill:#000000;fill-opacity:1;fill-rule:nonzero;stroke:none"
             d="m 0,0 c -0.059,0.059 -0.063,0.158 0,0.217 1.135,0.941 1.703,2.371 1.703,4.019 0,2.948 -1.801,5.211 -5.474,5.211 l -22.922,0.004 c -0.077,0 -0.137,-0.062 -0.137,-0.138 V 7.516 c 0,-0.077 0.06,-0.135 0.137,-0.135 h 21.545 c 1.824,0 2.691,-1.315 2.691,-3.143 0,-1.824 -0.865,-3.136 -2.691,-3.136 h -0.02 L -5.176,1.104 -26.693,1.1 c -0.077,0 -0.137,-0.061 -0.137,-0.137 v -1.797 c 0,-0.076 0.06,-0.137 0.137,-0.137 h 21.547 c 2.373,-0.017 2.687,-2.33 2.687,-3.515 l 0.004,-0.237 c 0,-1.826 -0.869,-3.14 -2.691,-3.14 h -21.547 c -0.077,0 -0.137,-0.063 -0.137,-0.135 v -1.799 c 0,-0.074 0.06,-0.137 0.137,-0.137 l 22.922,0.002 c 3.673,0 5.474,2.444 5.474,5.213 v 0.233 C 1.703,-2.721 1.133,-1.035 0,0" />
        </g>
      </g>
    </g>
  </g>
</svg>
