<?xml version="1.0" encoding="UTF-8" standalone="no"?>
<svg
   id="svg4237"
   sodipodi:version="0.32"
   inkscape:version="1.2 (dc2aedaf03, 2022-05-15)"
   version="1.0"
   sodipodi:docname="PlayStation_Portable (with PS symbol).svg"
   viewBox="-0.02 -0.02 1436.9301 306.83"
   width="1436.9301"
   height="306.82999"
   xml:space="preserve"
   xmlns:inkscape="http://www.inkscape.org/namespaces/inkscape"
   xmlns:sodipodi="http://sodipodi.sourceforge.net/DTD/sodipodi-0.dtd"
   xmlns="http://www.w3.org/2000/svg"
   xmlns:svg="http://www.w3.org/2000/svg"
   xmlns:rdf="http://www.w3.org/1999/02/22-rdf-syntax-ns#"
   xmlns:cc="http://creativecommons.org/ns#"
   xmlns:dc="http://purl.org/dc/elements/1.1/"><title
     id="title523">PlayStation Portable (with PS Insignia)</title><defs
     id="defs4239"><clipPath
       id="clp2"
       style="clip-rule:nonzero"><path
         id="path5264"
         d="M 234.2,0.1382 H 5879.3 V 7919 H 234.2 Z"
         inkscape:connector-curvature="0" /></clipPath><clipPath
       id="clp3"
       style="clip-rule:nonzero"><path
         id="path5273"
         d="M 234.06,0 H 5879.3 V 7919 H 234.06 Z"
         inkscape:connector-curvature="0" /></clipPath><clipPath
       id="clp4"
       style="clip-rule:nonzero"><path
         id="path5282"
         d="M 437.5,278.39 H 1028 V 456.94 H 437.5 Z"
         inkscape:connector-curvature="0" /></clipPath><clipPath
       id="clp5"
       style="clip-rule:nonzero"><path
         id="path5291"
         d="M 234.06,0 H 5879.3 V 7919 H 234.06 Z"
         inkscape:connector-curvature="0" /></clipPath><clipPath
       id="clp6"
       style="clip-rule:nonzero"><path
         id="path5330"
         d="M 437.5,278.39 H 1028 V 456.94 H 437.5 Z"
         inkscape:connector-curvature="0" /></clipPath><clipPath
       id="clp7"
       style="clip-rule:nonzero"><path
         id="path5341"
         d="M 234.06,0 H 5879.3 V 7919 H 234.06 Z"
         inkscape:connector-curvature="0" /></clipPath><clipPath
       id="clp8"
       style="clip-rule:nonzero"><path
         id="path5418"
         d="m 4026.3,282.71 h 699.8 v 170.38 h -699.8 z"
         inkscape:connector-curvature="0" /></clipPath><clipPath
       id="clp9"
       style="clip-rule:nonzero"><path
         id="path5427"
         d="M 234.06,0 H 5879.3 V 7919 H 234.06 Z"
         inkscape:connector-curvature="0" /></clipPath><clipPath
       id="clp10"
       style="clip-rule:nonzero"><path
         id="path5476"
         d="M 2444.9,428.65 V 306.69 h 506 v 121.96"
         inkscape:connector-curvature="0" /></clipPath><clipPath
       id="clp11"
       style="clip-rule:nonzero"><path
         id="path5485"
         d="M 234.06,0 H 5879.3 V 7919 H 234.06 Z"
         inkscape:connector-curvature="0" /></clipPath><clipPath
       id="clp12"
       style="clip-rule:nonzero"><path
         id="path5496"
         d="M 2444.9,428.65 V 306.69 h 506 v 121.96"
         inkscape:connector-curvature="0" /></clipPath><clipPath
       id="clp13"
       style="clip-rule:nonzero"><path
         id="path5505"
         d="M 234.06,0 H 5879.3 V 7919 H 234.06 Z"
         inkscape:connector-curvature="0" /></clipPath><clipPath
       id="clp14"
       style="clip-rule:nonzero"><path
         id="path5514"
         d="M 2444.9,428.65 V 306.69 h 506 v 121.96"
         inkscape:connector-curvature="0" /></clipPath><clipPath
       id="clp15"
       style="clip-rule:nonzero"><path
         id="path5523"
         d="M 234.06,0 H 5879.3 V 7919 H 234.06 Z"
         inkscape:connector-curvature="0" /></clipPath><clipPath
       id="clipPath5767"
       style="clip-rule:nonzero"><path
         id="path5769"
         d="M 234.2,0.1382 H 5879.3 V 7919 H 234.2 Z"
         inkscape:connector-curvature="0" /></clipPath><clipPath
       id="clipPath5775"
       style="clip-rule:nonzero"><path
         id="path5777"
         d="M 234.06,0 H 5879.3 V 7919 H 234.06 Z"
         inkscape:connector-curvature="0" /></clipPath><clipPath
       id="clipPath5783"
       style="clip-rule:nonzero"><path
         id="path5785"
         d="M 437.5,278.39 H 1028 V 456.94 H 437.5 Z"
         inkscape:connector-curvature="0" /></clipPath><clipPath
       id="clipPath5791"
       style="clip-rule:nonzero"><path
         id="path5793"
         d="M 234.06,0 H 5879.3 V 7919 H 234.06 Z"
         inkscape:connector-curvature="0" /></clipPath><clipPath
       id="clipPath5814"
       style="clip-rule:nonzero"><path
         id="path5816"
         d="M 437.5,278.39 H 1028 V 456.94 H 437.5 Z"
         inkscape:connector-curvature="0" /></clipPath><clipPath
       id="clipPath5823"
       style="clip-rule:nonzero"><path
         id="path5825"
         d="M 234.06,0 H 5879.3 V 7919 H 234.06 Z"
         inkscape:connector-curvature="0" /></clipPath><clipPath
       id="clipPath5865"
       style="clip-rule:nonzero"><path
         id="path5867"
         d="m 4026.3,282.71 h 699.8 v 170.38 h -699.8 z"
         inkscape:connector-curvature="0" /></clipPath><clipPath
       id="clipPath5873"
       style="clip-rule:nonzero"><path
         id="path5875"
         d="M 234.06,0 H 5879.3 V 7919 H 234.06 Z"
         inkscape:connector-curvature="0" /></clipPath><clipPath
       id="clipPath5901"
       style="clip-rule:nonzero"><path
         id="path5903"
         d="M 2444.9,428.65 V 306.69 h 506 v 121.96"
         inkscape:connector-curvature="0" /></clipPath><clipPath
       id="clipPath5909"
       style="clip-rule:nonzero"><path
         id="path5911"
         d="M 234.06,0 H 5879.3 V 7919 H 234.06 Z"
         inkscape:connector-curvature="0" /></clipPath><clipPath
       id="clipPath5918"
       style="clip-rule:nonzero"><path
         id="path5920"
         d="M 2444.9,428.65 V 306.69 h 506 v 121.96"
         inkscape:connector-curvature="0" /></clipPath><clipPath
       id="clipPath5926"
       style="clip-rule:nonzero"><path
         id="path5928"
         d="M 234.06,0 H 5879.3 V 7919 H 234.06 Z"
         inkscape:connector-curvature="0" /></clipPath><clipPath
       id="clipPath5934"
       style="clip-rule:nonzero"><path
         id="path5936"
         d="M 2444.9,428.65 V 306.69 h 506 v 121.96"
         inkscape:connector-curvature="0" /></clipPath><clipPath
       id="clipPath5942"
       style="clip-rule:nonzero"><path
         id="path5944"
         d="M 234.06,0 H 5879.3 V 7919 H 234.06 Z"
         inkscape:connector-curvature="0" /></clipPath><clipPath
       id="clipPath14221"
       style="clip-rule:nonzero"><path
         d="M 234.06,0 H 5879.3 V 7919 H 234.06 Z"
         id="path14223"
         inkscape:connector-curvature="0" /></clipPath><clipPath
       id="clipPath14217"
       style="clip-rule:nonzero"><path
         d="M 2444.9,428.65 V 306.69 h 506 v 121.96"
         id="path14219"
         inkscape:connector-curvature="0" /></clipPath><clipPath
       id="clipPath14213"
       style="clip-rule:nonzero"><path
         d="M 234.06,0 H 5879.3 V 7919 H 234.06 Z"
         id="path14215"
         inkscape:connector-curvature="0" /></clipPath><clipPath
       id="clipPath14209"
       style="clip-rule:nonzero"><path
         d="M 2444.9,428.65 V 306.69 h 506 v 121.96"
         id="path14211"
         inkscape:connector-curvature="0" /></clipPath><clipPath
       id="clipPath14205"
       style="clip-rule:nonzero"><path
         d="M 234.06,0 H 5879.3 V 7919 H 234.06 Z"
         id="path14207"
         inkscape:connector-curvature="0" /></clipPath><clipPath
       id="clipPath14201"
       style="clip-rule:nonzero"><path
         d="M 2444.9,428.65 V 306.69 h 506 v 121.96"
         id="path14203"
         inkscape:connector-curvature="0" /></clipPath><clipPath
       id="clipPath14197"
       style="clip-rule:nonzero"><path
         d="M 234.06,0 H 5879.3 V 7919 H 234.06 Z"
         id="path14199"
         inkscape:connector-curvature="0" /></clipPath><clipPath
       id="clipPath14193"
       style="clip-rule:nonzero"><path
         d="m 4026.3,282.71 h 699.8 v 170.38 h -699.8 z"
         id="path14195"
         inkscape:connector-curvature="0" /></clipPath><clipPath
       id="clipPath14189"
       style="clip-rule:nonzero"><path
         d="M 234.06,0 H 5879.3 V 7919 H 234.06 Z"
         id="path14191"
         inkscape:connector-curvature="0" /></clipPath><clipPath
       id="clipPath14185"
       style="clip-rule:nonzero"><path
         d="M 437.5,278.39 H 1028 V 456.94 H 437.5 Z"
         id="path14187"
         inkscape:connector-curvature="0" /></clipPath><clipPath
       id="clipPath14181"
       style="clip-rule:nonzero"><path
         d="M 234.06,0 H 5879.3 V 7919 H 234.06 Z"
         id="path14183"
         inkscape:connector-curvature="0" /></clipPath><clipPath
       id="clipPath14177"
       style="clip-rule:nonzero"><path
         d="M 437.5,278.39 H 1028 V 456.94 H 437.5 Z"
         id="path14179"
         inkscape:connector-curvature="0" /></clipPath><clipPath
       id="clipPath14173"
       style="clip-rule:nonzero"><path
         d="M 234.06,0 H 5879.3 V 7919 H 234.06 Z"
         id="path14175"
         inkscape:connector-curvature="0" /></clipPath><clipPath
       id="clipPath14169"
       style="clip-rule:nonzero"><path
         d="M 234.2,0.1382 H 5879.3 V 7919 H 234.2 Z"
         id="path14171"
         inkscape:connector-curvature="0" /></clipPath><clipPath
       id="clipPath14165"
       style="clip-rule:nonzero"><path
         d="M 234.06,0 H 5879.3 V 7919 H 234.06 Z"
         id="path14167"
         inkscape:connector-curvature="0" /></clipPath><clipPath
       id="clipPath14161"
       style="clip-rule:nonzero"><path
         d="M 2444.9,428.65 V 306.69 h 506 v 121.96"
         id="path14163"
         inkscape:connector-curvature="0" /></clipPath><clipPath
       id="clipPath14157"
       style="clip-rule:nonzero"><path
         d="M 234.06,0 H 5879.3 V 7919 H 234.06 Z"
         id="path14159"
         inkscape:connector-curvature="0" /></clipPath><clipPath
       id="clipPath14153"
       style="clip-rule:nonzero"><path
         d="M 2444.9,428.65 V 306.69 h 506 v 121.96"
         id="path14155"
         inkscape:connector-curvature="0" /></clipPath><clipPath
       id="clipPath14149"
       style="clip-rule:nonzero"><path
         d="M 234.06,0 H 5879.3 V 7919 H 234.06 Z"
         id="path14151"
         inkscape:connector-curvature="0" /></clipPath><clipPath
       id="clipPath14145"
       style="clip-rule:nonzero"><path
         d="M 2444.9,428.65 V 306.69 h 506 v 121.96"
         id="path14147"
         inkscape:connector-curvature="0" /></clipPath><clipPath
       id="clipPath14141"
       style="clip-rule:nonzero"><path
         d="M 234.06,0 H 5879.3 V 7919 H 234.06 Z"
         id="path14143"
         inkscape:connector-curvature="0" /></clipPath><clipPath
       id="clipPath14137"
       style="clip-rule:nonzero"><path
         d="m 4026.3,282.71 h 699.8 v 170.38 h -699.8 z"
         id="path14139"
         inkscape:connector-curvature="0" /></clipPath><clipPath
       id="clipPath14133"
       style="clip-rule:nonzero"><path
         d="M 234.06,0 H 5879.3 V 7919 H 234.06 Z"
         id="path14135"
         inkscape:connector-curvature="0" /></clipPath><clipPath
       id="clipPath14129"
       style="clip-rule:nonzero"><path
         d="M 437.5,278.39 H 1028 V 456.94 H 437.5 Z"
         id="path14131"
         inkscape:connector-curvature="0" /></clipPath><clipPath
       id="clipPath14125"
       style="clip-rule:nonzero"><path
         d="M 234.06,0 H 5879.3 V 7919 H 234.06 Z"
         id="path14127"
         inkscape:connector-curvature="0" /></clipPath><clipPath
       id="clipPath14121"
       style="clip-rule:nonzero"><path
         d="M 437.5,278.39 H 1028 V 456.94 H 437.5 Z"
         id="path14123"
         inkscape:connector-curvature="0" /></clipPath><clipPath
       id="clipPath14117"
       style="clip-rule:nonzero"><path
         d="M 234.06,0 H 5879.3 V 7919 H 234.06 Z"
         id="path14119"
         inkscape:connector-curvature="0" /></clipPath><clipPath
       id="clipPath14113"
       style="clip-rule:nonzero"><path
         d="M 234.2,0.1382 H 5879.3 V 7919 H 234.2 Z"
         id="path14115"
         inkscape:connector-curvature="0" /></clipPath></defs><sodipodi:namedview
     id="base"
     pagecolor="#ffffff"
     bordercolor="#666666"
     borderopacity="1.0"
     inkscape:pageopacity="0.0"
     inkscape:pageshadow="2"
     inkscape:zoom="0.49497475"
     inkscape:cx="993.9901"
     inkscape:cy="54.548237"
     inkscape:document-units="px"
     inkscape:current-layer="layer1"
     inkscape:window-width="1920"
     inkscape:window-height="1017"
     inkscape:window-x="-8"
     inkscape:window-y="-8"
     showgrid="false"
     inkscape:window-maximized="1"
     inkscape:pagecheckerboard="0"
     inkscape:showpageshadow="2"
     inkscape:deskcolor="#d1d1d1" /><metadata
     id="metadata4242"><rdf:RDF><cc:Work
         rdf:about=""><dc:format>image/svg+xml</dc:format><dc:type
           rdf:resource="http://purl.org/dc/dcmitype/StillImage" /><dc:title>PlayStation Portable (with PS Insignia)</dc:title></cc:Work></rdf:RDF></metadata><g
     inkscape:label="Ebene 1"
     inkscape:groupmode="layer"
     id="layer1"
     transform="translate(2.322326,-414.98777)"><g
       id="g563"
       style="fill:#000000"><g
         id="g425"
         style="fill:#000000"
         transform="translate(494,72)"><path
           style="fill:#000000;fill-rule:nonzero;stroke:none"
           d="M -2.3223259,414.98729 H 290.5095 v 86.83702 H 9.249577 v 75.2652 H -2.3223259 V 490.25243 H 278.93773 V 426.55907 H -2.3223259 v -11.57178"
           class="ps02"
           id="path6945"
           inkscape:connector-curvature="0"
           data-darkreader-inline-fill=""
           data-darkreader-inline-stroke="" /><path
           style="fill:#000000;fill-rule:nonzero;stroke:none"
           d="m 656.30826,501.82431 v 75.2652 H 644.73651 V 490.25243 H 925.99656 V 426.55907 H 644.73651 v -11.57178 h 292.83181 v 86.83702 H 656.30826"
           class="ps02"
           id="path6947"
           inkscape:connector-curvature="0"
           data-darkreader-inline-fill=""
           data-darkreader-inline-stroke="" /><path
           style="fill:#000000;fill-rule:nonzero;stroke:none"
           d="M 439.81851,414.98729 V 565.51761 H 290.5095 v 11.5719 H 452.03311 V 426.55907 H 601.34205 V 414.98729 H 439.81851"
           class="ps02"
           id="path6949"
           inkscape:connector-curvature="0"
           data-darkreader-inline-fill=""
           data-darkreader-inline-stroke="" /></g><g
         transform="matrix(0.01979969,0,0,-0.01979969,-1.7780998,721.58838)"
         id="g3039"
         style="fill:#000000;stroke:none"><path
           d="m 7502,8268 3,-7133 1610,-511 1610,-511 5,6071 c 6,5732 7,6076 23,6156 24,117 45,184 77,257 111,246 302,348 535,283 341,-94 537,-342 609,-770 33,-199 36,-402 36,-2823 V 6879 l 95,-45 c 207,-96 482,-193 698,-244 1346,-317 2346,326 2682,1724 94,392 133,814 121,1329 -16,723 -96,1277 -255,1762 -251,771 -705,1364 -1411,1844 -601,408 -1296,718 -2420,1079 -1411,453 -2791,830 -3758,1027 -123,25 -233,45 -243,45 -19,0 -19,-130 -17,-7132 z"
           id="path3041"
           inkscape:connector-curvature="0"
           style="fill:#000000" /><path
           d="M 5150,6173 C 4201,5836 3164,5467 2845,5354 2006,5056 1924,5026 1725,4945 1156,4714 669,4452 408,4236 313,4157 227,4050 175,3945 110,3815 97,3752 102,3600 c 4,-107 9,-137 35,-207 57,-157 175,-319 331,-456 216,-189 601,-386 977,-502 66,-20 190,-59 275,-85 1610,-506 3265,-621 4930,-342 l 225,38 3,842 c 1,471 -2,842 -7,842 -4,0 -170,-59 -367,-131 -1390,-506 -1438,-521 -1729,-573 -593,-107 -1222,-76 -1530,74 -182,88 -234,186 -165,306 51,90 181,185 350,256 41,17 833,302 1758,634 926,331 1686,604 1688,607 2,2 3,427 2,944 l -3,940 z"
           id="path3043"
           inkscape:connector-curvature="0"
           style="fill:#000000" /><path
           d="m 14500,5964 c -947,-52 -2024,-252 -2922,-541 l -238,-77 v -973 c 0,-623 3,-973 10,-973 9,0 350,120 2380,835 1122,396 1171,413 1315,450 732,192 1647,146 1910,-96 76,-70 93,-134 55,-209 -47,-92 -145,-170 -311,-249 -57,-27 -520,-198 -1029,-379 -509,-182 -1325,-472 -1815,-647 -1485,-529 -2479,-883 -2497,-890 -17,-7 -18,-61 -18,-947 0,-891 1,-940 18,-933 20,8 2772,996 6066,2179 560,202 1082,394 1160,427 428,184 821,428 1035,640 198,196 281,370 281,584 0,228 -85,402 -296,604 -180,174 -501,364 -834,494 -172,67 -733,259 -910,311 -661,194 -1334,310 -2180,377 -130,10 -1046,20 -1180,13 z"
           id="path3045"
           inkscape:connector-curvature="0"
           style="fill:#000000" /></g></g></g></svg>
